<svg width="80" height="32" fill="none" xmlns="http://www.w3.org/2000/svg"><circle cx="16" cy="16" r="16" transform="matrix(-1 0 0 1 80 0)" fill="#fff"/><g clip-path="url('#clip0_22904_246')"><path d="M61.443 12.557 62.5 11.5 67 16l-4.5 4.5-1.057-1.058L64.877 16l-3.434-3.443Z" fill="#253757"/></g><circle cx="16" cy="16" r="16" fill="#fff"/><g clip-path="url('#clip1_22904_246')"><path d="M18.558 12.557 17.5 11.5 13 16l4.5 4.5 1.058-1.058L15.123 16l3.435-3.443Z" fill="#253757"/></g><defs><clipPath id="clip0_22904_246"><path fill="#fff" transform="matrix(-1 0 0 1 73 7)" d="M0 0h18v18H0z"/></clipPath><clipPath id="clip1_22904_246"><path fill="#fff" transform="translate(7 7)" d="M0 0h18v18H0z"/></clipPath></defs></svg>